<?xml version="1.0" encoding="UTF-8"?><svg id="a" xmlns="http://www.w3.org/2000/svg" xmlns:xlink="http://www.w3.org/1999/xlink" viewBox="0 0 2000 400"><defs><style>.f{fill:#0071bc;}.g{filter:url(#b);}.h{filter:url(#d);}.i{fill:#29abe2;}.j{fill:#f2f2f2;}</style><filter id="b" filterUnits="userSpaceOnUse"><feOffset dx="0" dy="0"/><feGaussianBlur result="c" stdDeviation="20"/><feFlood flood-color="#000" flood-opacity=".25"/><feComposite in2="c" operator="in"/><feComposite in="SourceGraphic"/></filter><filter id="d" filterUnits="userSpaceOnUse"><feOffset dx="0" dy="0"/><feGaussianBlur result="e" stdDeviation="20"/><feFlood flood-color="#000" flood-opacity=".25"/><feComposite in2="e" operator="in"/><feComposite in="SourceGraphic"/></filter></defs><g class="g"><path class="j" d="M502.0115,150c33.0909,0,53.3445,.6582,60.7669,1.9701,7.9197,1.416,12.7851,4.4469,14.5901,9.0928,1.0007,2.9314,1.5533,8.9413,1.6545,18.0341v9.699c0,3.2345-.1273,5.683-.376,7.35-.2517,1.667-.9285,3.6134-2.0306,5.8346-1.105,2.2237-3.0343,3.8149-5.7909,4.7737-2.7596,.9608-6.4447,1.4397-11.0554,1.4397,4.6107,0,8.2958,.4809,11.0554,1.4397,2.7566,.9618,4.6859,2.5531,5.7909,4.7737,1.102,2.2237,1.7789,4.1675,2.0306,5.8346,.2487,1.667,.376,4.118,.376,7.35v19.398c0,10.2062-.8042,16.7227-2.4066,19.5495-2.3083,4.4474-8.4753,7.1752-18.5008,8.1835-7.6219,.9093-26.3223,1.3639-56.1041,1.3639h-77.0115v-126.087h77.0115Zm0,48.495c19.2529,0,30.4817-.3789,33.6925-1.1366,3.2078-.7577,4.8132-3.6109,4.8132-8.5624,0-4.949-1.6054-7.8047-4.8132-8.5624-3.2108-.7577-14.4397-1.1366-33.6925-1.1366h-38.5057v19.398h38.5057Zm0,48.495c19.2529,0,30.4817-.3789,33.6925-1.1366,3.2078-.7577,4.8132-3.6109,4.8132-8.5624,0-4.9485-1.6054-7.8047-4.8132-8.5624-3.2108-.7577-14.4397-1.1366-33.6925-1.1366h-38.5057v19.398h38.5057Z"/><path class="j" d="M641.7883,276.087c-4.8132,0-9.0509-.1253-12.7099-.3789-3.6621-.2506-6.8438-.7577-9.5512-1.5155s-4.9897-1.4629-6.8438-2.1217c-1.8571-.6557-3.3843-1.766-4.5876-3.334-1.2033-1.565-2.1319-2.8794-2.7826-3.9402-.6538-1.0608-1.1281-2.7773-1.4289-5.1526-.3008-2.3722-.4773-4.2928-.5264-5.7588-.0521-1.4629-.0752-3.7624-.0752-6.8954,0-3.1299,.0231-5.4294,.0752-6.8954,.0491-1.4629,.2256-3.3835,.5264-5.7588,.3008-2.3722,.7751-4.0918,1.4289-5.1526,.6508-1.0608,1.5793-2.3722,2.7826-3.9402,1.2033-1.565,2.7305-2.6753,4.5876-3.334,1.8541-.6557,4.1364-1.3639,6.8438-2.1217s5.8892-1.2619,9.5512-1.5155c3.659-.2506,7.8967-.3789,12.7099-.3789h28.8793c4.1103,0,7.0925,.0263,8.9496,.0758,1.8541,.0525,4.1594,.1515,6.919,.3031,2.7566,.1515,4.7119,.4314,5.8661,.8335,1.1512,.4051,2.4066,.9618,3.7603,1.667,1.3537,.7082,2.2562,1.6175,2.7074,2.7278,.4512,1.1134,.6769,2.4773,.6769,4.0918v-19.398c0-1.615-.2256-2.9789-.6769-4.0918-.4512-1.1103-1.3537-2.0196-2.7074-2.7278-1.3537-.7057-2.6092-1.2619-3.7603-1.667-1.1542-.4026-3.1095-.682-5.8661-.8335-2.7596-.1515-5.0649-.2511-6.919-.3031-1.8571-.0495-4.8393-.0758-8.9496-.0758-4.1133,0-7.0955,.0263-8.9496,.0758-1.8571,.052-4.1624,.1515-6.919,.3031-2.7596,.1515-4.7149,.4309-5.8661,.8335-1.1542,.4051-2.4066,.9613-3.7603,1.667-1.3537,.7082-2.2562,1.6175-2.7074,2.7278-.4512,1.1129-.6769,2.4768-.6769,4.0918h-38.5057c0-13.9423,3.6099-22.2774,10.8297-25.0052s26.0706-4.0918,56.5553-4.0918,49.3355,1.3639,56.5553,4.0918,10.8297,11.0629,10.8297,25.0052v67.893h-38.5057v-9.699c0,1.6175-.2256,2.9814-.6769,4.0918-.4512,1.1134-1.3537,2.0226-2.7074,2.7278-1.3537,.7082-2.6092,1.2649-3.7603,1.667-1.1542,.4051-3.1095,.682-5.8661,.8335-2.7596,.1515-5.0649,.2536-6.919,.3031-1.8571,.0525-4.8393,.0758-8.9496,.0758h-28.8793Zm3.6099-37.5836c-2.4066,.8103-3.6099,3.6371-3.6099,8.4866s1.2033,7.6794,3.6099,8.4866c2.4066,.8103,10.8297,1.2124,25.2694,1.2124s22.8628-.4021,25.2694-1.2124c2.4066-.8072,3.6099-3.6371,3.6099-8.4866s-1.2033-7.6764-3.6099-8.4866c-2.4066-.8072-10.8297-1.2124-25.2694-1.2124s-22.8628,.4051-25.2694,1.2124Z"/><path class="j" d="M802.4606,202.6625c-1.0038,1.3639-1.5041,3.2088-1.5041,5.5315,0,2.3257,.5004,4.1675,1.5041,5.5315,1.0007,1.3639,2.9822,2.3257,5.9413,2.8794,2.9561,.5567,5.7648,.9093,8.4231,1.0608,2.6553,.1515,6.9942,.2273,13.0107,.2273,30.583,0,49.4598,1.3639,56.6305,4.0918,7.1677,2.7278,10.7545,11.0629,10.7545,25.0052s-3.5869,22.2774-10.7545,25.0052c-7.1707,2.7278-26.0475,4.0918-56.6305,4.0918s-49.4628-1.3639-56.6305-4.0918c-7.1707-2.7278-10.7545-11.0629-10.7545-25.0052h38.5057c0,2.3257,.5004,4.1675,1.5041,5.5315,1.0007,1.3639,2.9822,2.3257,5.9413,2.8794,2.9561,.5567,5.7648,.9093,8.4231,1.0608,2.6553,.1515,6.9942,.2273,13.0107,.2273s10.3524-.0758,13.0107-.2273c2.6553-.1515,5.4379-.5041,8.3479-1.0608,2.907-.5537,4.8884-1.5155,5.9413-2.8794s1.5793-3.2057,1.5793-5.5315c0-2.3227-.5264-4.1675-1.5793-5.5315s-3.0343-2.3227-5.9413-2.8794c-2.91-.5537-5.6926-.9093-8.3479-1.0608-2.6583-.1515-6.9942-.2273-13.0107-.2273-30.586,0-49.4628-1.3639-56.6305-4.0918-7.1707-2.7278-10.7545-11.0629-10.7545-25.0052s3.5838-22.2774,10.7545-25.0052c7.1677-2.7278,26.0445-4.0918,56.6305-4.0918s49.4598,1.3639,56.6305,4.0918c7.1677,2.7278,10.7545,11.0629,10.7545,25.0052h-38.5057c0-2.3227-.5264-4.1675-1.5793-5.5315s-3.0343-2.3227-5.9413-2.8794c-2.91-.5542-5.6926-.9093-8.3479-1.0608-2.6583-.1515-6.9942-.2273-13.0107-.2273s-10.3554,.0758-13.0107,.2273c-2.6583,.1515-5.467,.5067-8.4231,1.0608-2.9591,.5567-4.9406,1.5155-5.9413,2.8794Z"/><path class="j" d="M961.6758,202.6625c-1.0038,1.3639-1.5041,3.2088-1.5041,5.5315,0,2.3257,.5004,4.1675,1.5041,5.5315,1.0007,1.3639,2.9822,2.3257,5.9413,2.8794,2.9561,.5567,5.7648,.9093,8.4231,1.0608,2.6553,.1515,6.9942,.2273,13.0107,.2273,30.583,0,49.4598,1.3639,56.6305,4.0918,7.1677,2.7278,10.7545,11.0629,10.7545,25.0052s-3.5869,22.2774-10.7545,25.0052c-7.1707,2.7278-26.0475,4.0918-56.6305,4.0918s-49.4628-1.3639-56.6305-4.0918c-7.1707-2.7278-10.7545-11.0629-10.7545-25.0052h38.5057c0,2.3257,.5004,4.1675,1.5041,5.5315,1.0007,1.3639,2.9822,2.3257,5.9413,2.8794,2.9561,.5567,5.7648,.9093,8.4231,1.0608,2.6553,.1515,6.9942,.2273,13.0107,.2273s10.3524-.0758,13.0107-.2273c2.6553-.1515,5.4379-.5041,8.3479-1.0608,2.907-.5537,4.8884-1.5155,5.9413-2.8794s1.5793-3.2057,1.5793-5.5315c0-2.3227-.5264-4.1675-1.5793-5.5315s-3.0343-2.3227-5.9413-2.8794c-2.91-.5537-5.6926-.9093-8.3479-1.0608-2.6583-.1515-6.9942-.2273-13.0107-.2273-30.586,0-49.4628-1.3639-56.6305-4.0918-7.1707-2.7278-10.7545-11.0629-10.7545-25.0052s3.5838-22.2774,10.7545-25.0052c7.1677-2.7278,26.0445-4.0918,56.6305-4.0918s49.4598,1.3639,56.6305,4.0918c7.1677,2.7278,10.7545,11.0629,10.7545,25.0052h-38.5057c0-2.3227-.5264-4.1675-1.5793-5.5315s-3.0343-2.3227-5.9413-2.8794c-2.91-.5542-5.6926-.9093-8.3479-1.0608-2.6583-.1515-6.9942-.2273-13.0107-.2273s-10.3554,.0758-13.0107,.2273c-2.6583,.1515-5.467,.5067-8.4231,1.0608-2.9591,.5567-4.9406,1.5155-5.9413,2.8794Z"/><path class="j" d="M1218.7939,150c33.0909,0,53.3445,.6582,60.7669,1.9701,7.9197,1.416,12.7851,4.4469,14.5901,9.0928,1.0007,2.9314,1.5533,8.9413,1.6545,18.0341v9.699c0,3.2345-.1273,5.683-.376,7.35-.2517,1.667-.9285,3.6134-2.0306,5.8346-1.105,2.2237-3.0343,3.8149-5.7909,4.7737-2.7596,.9608-6.4447,1.4397-11.0554,1.4397,4.6107,0,8.2958,.4809,11.0554,1.4397,2.7566,.9618,4.6859,2.5531,5.7909,4.7737,1.102,2.2237,1.7789,4.1675,2.0306,5.8346,.2487,1.667,.376,4.118,.376,7.35v19.398c0,10.2062-.8042,16.7227-2.4066,19.5495-2.3083,4.4474-8.4753,7.1752-18.5008,8.1835-7.6219,.9093-26.3223,1.3639-56.1041,1.3639h-77.0115v-126.087h77.0115Zm0,48.495c19.2529,0,30.4817-.3789,33.6925-1.1366,3.2078-.7577,4.8132-3.6109,4.8132-8.5624,0-4.949-1.6054-7.8047-4.8132-8.5624-3.2108-.7577-14.4397-1.1366-33.6925-1.1366h-38.5057v19.398h38.5057Zm0,48.495c19.2529,0,30.4817-.3789,33.6925-1.1366,3.2078-.7577,4.8132-3.6109,4.8132-8.5624,0-4.9485-1.6054-7.8047-4.8132-8.5624-3.2108-.7577-14.4397-1.1366-33.6925-1.1366h-38.5057v19.398h38.5057Z"/><path class="j" d="M1370.0954,179.1728c3.6099-.0495,9.5252-.0758,17.7487-.0758s14.1128,.0263,17.6735,.0758c3.5578,.052,8.1714,.1515,13.838,.3031,5.6636,.1515,9.5512,.5067,11.657,1.0608,2.1058,.5567,4.9376,1.1886,8.4983,1.8943,3.5578,.7082,5.84,1.7948,6.8438,3.2583,1.0007,1.466,2.3545,3.083,4.0612,4.8495,1.7037,1.7691,2.7305,4.0423,3.0835,6.8196,.35,2.7799,.726,5.7588,1.1281,8.9413,.3991,3.1825,.6017,7.0469,.6017,11.5933v19.398c0,4.5464-.2026,8.4108-.6017,11.5933-.4021,3.1825-.7781,6.1639-1.1281,8.9413-.353,2.7804-1.3798,5.0536-3.0835,6.8196-1.7067,1.7691-3.0604,3.3866-4.0612,4.8495-1.0038,1.466-3.286,2.5531-6.8438,3.2583-3.5608,.7082-6.3926,1.3407-8.4983,1.8943-2.1058,.5567-5.9935,.9093-11.657,1.0608-5.6666,.1515-10.2802,.2536-13.838,.3031-3.5608,.0525-9.453,.0758-17.6735,.0758s-14.1388-.0232-17.7487-.0758c-3.6099-.0495-8.2236-.1515-13.838-.3031-5.6174-.1515-9.5021-.5041-11.657-1.0608-2.1579-.5537-4.9897-1.1861-8.4983-1.8943-3.5116-.7052-5.7678-1.7923-6.7686-3.2583-1.0038-1.4629-2.3575-3.0804-4.0612-4.8495-1.7067-1.766-2.7335-4.0392-3.0835-6.8196-.353-2.7773-.729-5.7588-1.1281-8.9413-.4021-3.1825-.6017-7.0469-.6017-11.5933v-19.398c0-4.5464,.1995-8.4108,.6017-11.5933,.3991-3.1825,.7751-6.1614,1.1281-8.9413,.35-2.7773,1.3768-5.0506,3.0835-6.8196,1.7037-1.7665,3.0574-3.3835,4.0612-4.8495,1.0007-1.4634,3.2569-2.55,6.7686-3.2583,3.5086-.7057,6.3404-1.3377,8.4983-1.8943,2.1549-.5542,6.0396-.9093,11.657-1.0608,5.6144-.1515,10.2281-.2511,13.838-.3031Zm46.6281,58.1182v-19.398c0-3.8382-.4512-6.9944-1.3537-9.4717-.9025-2.4743-1.9323-4.3949-3.0835-5.7588-1.1542-1.3639-3.2108-2.3227-6.1669-2.8794-2.9591-.5542-5.5161-.9093-7.6711-1.0608-2.1579-.1515-5.6926-.2273-10.6041-.2273-4.9145,0-8.4492,.0758-10.6041,.2273-2.1579,.1515-4.7149,.5067-7.6711,1.0608-2.9591,.5567-5.0158,1.5155-6.1669,2.8794-1.1542,1.3639-2.181,3.2845-3.0835,5.7588-.9025,2.4773-1.3537,5.6335-1.3537,9.4717v19.398c0,3.8412,.4512,6.9974,1.3537,9.4717,.9025,2.4773,1.9293,4.3949,3.0835,5.7588,1.1512,1.3639,3.2078,2.3257,6.1669,2.8794,2.9561,.5567,5.5131,.9093,7.6711,1.0608,2.1549,.1515,5.6896,.2273,10.6041,.2273,4.9115,0,8.4462-.0758,10.6041-.2273,2.1549-.1515,4.7119-.5041,7.6711-1.0608,2.9561-.5537,5.0128-1.5155,6.1669-2.8794,1.1512-1.3639,2.181-3.2815,3.0835-5.7588,.9025-2.4743,1.3537-5.6305,1.3537-9.4717Z"/><path class="j" d="M1529.3839,179.1728c3.6099-.0495,9.5252-.0758,17.7487-.0758s14.1128,.0263,17.6735,.0758c3.5578,.052,8.1714,.1515,13.838,.3031,5.6636,.1515,9.5512,.5067,11.657,1.0608,2.1058,.5567,4.9376,1.1886,8.4983,1.8943,3.5578,.7082,5.84,1.7948,6.8438,3.2583,1.0007,1.466,2.3545,3.083,4.0612,4.8495,1.7037,1.7691,2.7305,4.0423,3.0835,6.8196,.35,2.7799,.726,5.7588,1.1281,8.9413,.3991,3.1825,.6017,7.0469,.6017,11.5933v19.398c0,4.5464-.2026,8.4108-.6017,11.5933-.4021,3.1825-.7781,6.1639-1.1281,8.9413-.353,2.7804-1.3798,5.0536-3.0835,6.8196-1.7067,1.7691-3.0604,3.3866-4.0612,4.8495-1.0038,1.466-3.286,2.5531-6.8438,3.2583-3.5608,.7082-6.3926,1.3407-8.4983,1.8943-2.1058,.5567-5.9935,.9093-11.657,1.0608-5.6666,.1515-10.2802,.2536-13.838,.3031-3.5608,.0525-9.453,.0758-17.6735,.0758s-14.1388-.0232-17.7487-.0758c-3.6099-.0495-8.2236-.1515-13.838-.3031-5.6174-.1515-9.5021-.5041-11.657-1.0608-2.1579-.5537-4.9897-1.1861-8.4983-1.8943-3.5116-.7052-5.7678-1.7923-6.7686-3.2583-1.0038-1.4629-2.3575-3.0804-4.0612-4.8495-1.7067-1.766-2.7335-4.0392-3.0835-6.8196-.353-2.7773-.729-5.7588-1.1281-8.9413-.4021-3.1825-.6017-7.0469-.6017-11.5933v-19.398c0-4.5464,.1995-8.4108,.6017-11.5933,.3991-3.1825,.7751-6.1614,1.1281-8.9413,.35-2.7773,1.3768-5.0506,3.0835-6.8196,1.7037-1.7665,3.0574-3.3835,4.0612-4.8495,1.0007-1.4634,3.2569-2.55,6.7686-3.2583,3.5086-.7057,6.3404-1.3377,8.4983-1.8943,2.1549-.5542,6.0396-.9093,11.657-1.0608,5.6144-.1515,10.2281-.2511,13.838-.3031Zm46.6281,58.1182v-19.398c0-3.8382-.4512-6.9944-1.3537-9.4717-.9025-2.4743-1.9323-4.3949-3.0835-5.7588-1.1542-1.3639-3.2108-2.3227-6.1669-2.8794-2.9591-.5542-5.5161-.9093-7.6711-1.0608-2.1579-.1515-5.6926-.2273-10.6041-.2273-4.9145,0-8.4492,.0758-10.6041,.2273-2.1579,.1515-4.7149,.5067-7.6711,1.0608-2.9591,.5567-5.0158,1.5155-6.1669,2.8794-1.1542,1.3639-2.181,3.2845-3.0835,5.7588-.9025,2.4773-1.3537,5.6335-1.3537,9.4717v19.398c0,3.8412,.4512,6.9974,1.3537,9.4717,.9025,2.4773,1.9293,4.3949,3.0835,5.7588,1.1512,1.3639,3.2078,2.3257,6.1669,2.8794,2.9561,.5567,5.5131,.9093,7.6711,1.0608,2.1549,.1515,5.6896,.2273,10.6041,.2273,4.9115,0,8.4462-.0758,10.6041-.2273,2.1549-.1515,4.7119-.5041,7.6711-1.0608,2.9561-.5537,5.0128-1.5155,6.1669-2.8794,1.1512-1.3639,2.181-3.2815,3.0835-5.7588,.9025-2.4743,1.3537-5.6305,1.3537-9.4717Z"/><path class="j" d="M1679.0459,202.6625c-1.0038,1.3639-1.5041,3.2088-1.5041,5.5315,0,2.3257,.5004,4.1675,1.5041,5.5315,1.0007,1.3639,2.9822,2.3257,5.9413,2.8794,2.9561,.5567,5.7648,.9093,8.4231,1.0608,2.6553,.1515,6.9942,.2273,13.0107,.2273,30.583,0,49.4598,1.3639,56.6305,4.0918,7.1677,2.7278,10.7545,11.0629,10.7545,25.0052s-3.5869,22.2774-10.7545,25.0052c-7.1707,2.7278-26.0475,4.0918-56.6305,4.0918s-49.4628-1.3639-56.6305-4.0918c-7.1707-2.7278-10.7545-11.0629-10.7545-25.0052h38.5057c0,2.3257,.5004,4.1675,1.5041,5.5315,1.0007,1.3639,2.9822,2.3257,5.9413,2.8794,2.9561,.5567,5.7648,.9093,8.4231,1.0608,2.6553,.1515,6.9942,.2273,13.0107,.2273s10.3524-.0758,13.0107-.2273c2.6553-.1515,5.4379-.5041,8.3479-1.0608,2.907-.5537,4.8884-1.5155,5.9413-2.8794s1.5793-3.2057,1.5793-5.5315c0-2.3227-.5264-4.1675-1.5793-5.5315s-3.0343-2.3227-5.9413-2.8794c-2.91-.5537-5.6926-.9093-8.3479-1.0608-2.6583-.1515-6.9942-.2273-13.0107-.2273-30.586,0-49.4628-1.3639-56.6305-4.0918-7.1707-2.7278-10.7545-11.0629-10.7545-25.0052s3.5838-22.2774,10.7545-25.0052c7.1677-2.7278,26.0445-4.0918,56.6305-4.0918s49.4598,1.3639,56.6305,4.0918c7.1677,2.7278,10.7545,11.0629,10.7545,25.0052h-38.5057c0-2.3227-.5264-4.1675-1.5793-5.5315s-3.0343-2.3227-5.9413-2.8794c-2.91-.5542-5.6926-.9093-8.3479-1.0608-2.6583-.1515-6.9942-.2273-13.0107-.2273s-10.3554,.0758-13.0107,.2273c-2.6583,.1515-5.467,.5067-8.4231,1.0608-2.9591,.5567-4.9406,1.5155-5.9413,2.8794Z"/><path class="j" d="M1875,208.194h-28.8793v37.4321c0,1.5155,.4252,3.2583,1.2785,5.2284,.8503,1.9701,1.5793,3.133,2.181,3.4856,.6017,.3556,2.3545,.8335,5.2645,1.4397,2.907,.6062,5.5131,.9093,7.8215,.9093h12.3339v19.398c-8.2236,0-14.1388-.0232-17.7487-.0758-3.6099-.0495-8.2236-.1515-13.838-.3031-5.6174-.1515-9.476-.5041-11.5818-1.0608-2.1058-.5537-4.9406-1.1861-8.4983-1.8943-3.5608-.7052-5.843-1.7923-6.8438-3.2583-1.0038-1.4629-2.3575-3.0804-4.0612-4.8495-1.7067-1.766-2.7335-4.0392-3.0835-6.8196-.353-2.7773-.729-5.7588-1.1281-8.9413-.4021-3.1825-.6017-7.0469-.6017-11.5933v-29.097h-9.6264v-19.398h9.6264v-19.398h38.5057v19.398h28.8793v19.398Z"/></g><g class="h"><path class="i" d="M200,275h0c-13.8071,0-25-11.1929-25-25h0v-25h0c0-13.8071,11.1929-25,25-25h25v-50h-25.0001c-41.4213,0-74.9999,33.5786-74.9999,74.9999h0v25.0001h0c0,41.4214,33.5786,75,74.9999,75h100.0001v-50h-100Z"/><path class="f" d="M300,275c-13.8071,0-25-11.1929-25-25h0V75h-50V250h0c0,41.4214,33.5786,75,74.9999,75h0v-50h0Z"/></g></svg>